<?xml version="1.0" encoding="UTF-8"?>
<svg id="_레이어_1" data-name="레이어 1" xmlns="http://www.w3.org/2000/svg" viewBox="0 0 30 30">
  <defs>
    <style>
      .cls-1 {
        fill: #4f4f4f;
        stroke-width: 0px;
      }
    </style>
  </defs>
  <path class="cls-1" d="m26.51,7.64h-1.11v-3.51c0-1.26-1.02-2.28-2.28-2.28H6.88c-1.26,0-2.28,1.02-2.28,2.28v3.51h-1.11c-1.03,0-1.87.84-1.87,1.87v3.46h1.24v-3.46c0-.35.28-.63.63-.63h1.11v15.15c0,.72.47,1.33,1.12,1.54v.96c0,.89.73,1.62,1.62,1.62h2.66c.89,0,1.62-.73,1.62-1.62v-.88h6.76v.88c0,.89.73,1.62,1.62,1.62h2.66c.89,0,1.62-.73,1.62-1.62v-.96c.65-.21,1.12-.82,1.12-1.54v-15.15h1.11c.35,0,.63.28.63.63v3.46h1.24v-3.46c0-1.03-.84-1.87-1.87-1.87Zm-20.67-.62h8.54v9.32H5.84V7.03Zm4.54,19.5c0,.21-.17.38-.38.38h-2.66c-.21,0-.38-.17-.38-.38v-.88h3.43v.88Zm12.66,0c0,.21-.17.38-.38.38h-2.66c-.21,0-.38-.17-.38-.38v-.88h3.43v.88Zm1.12-2.49c0,.21-.17.38-.38.38H6.22c-.21,0-.38-.17-.38-.38v-6.45h18.32v6.45Zm0-7.69h-8.54V7.03h8.54v9.32Zm0-10.55H5.84v-1.65c0-.58.47-1.05,1.05-1.05h16.23c.58,0,1.05.47,1.05,1.05v1.65Z"/>
  <path class="cls-1" d="m9.31,22.95c1.19,0,2.17-.97,2.17-2.17s-.97-2.17-2.17-2.17-2.17.97-2.17,2.17.97,2.17,2.17,2.17Zm0-3.1c.51,0,.93.42.93.93s-.42.93-.93.93-.93-.42-.93-.93.42-.93.93-.93Z"/>
  <path class="cls-1" d="m20.69,22.95c1.19,0,2.17-.97,2.17-2.17s-.97-2.17-2.17-2.17-2.17.97-2.17,2.17.97,2.17,2.17,2.17Zm0-3.1c.51,0,.93.42.93.93s-.42.93-.93.93-.93-.42-.93-.93.42-.93.93-.93Z"/>
</svg>