<?xml version="1.0" encoding="UTF-8"?>
<svg id="_레이어_1" data-name="레이어 1" xmlns="http://www.w3.org/2000/svg" viewBox="0 0 30 30">
  <defs>
    <style>
      .cls-1 {
        fill: #4f4f4f;
        stroke-width: 0px;
      }
    </style>
  </defs>
  <path class="cls-1" d="m30,10.72v-1.23h-3.02l-1.2,1.04-1.79-4.07c-.52-1.32-1.58-2.02-3.06-2.02h-11.88c-1.48,0-2.54.7-3.05,2l-1.8,4.09-1.19-1.04H0v1.23h2.55l.94.82-1.22,1.03c-.84.71-1.32,1.75-1.32,2.84v4.66c0,.83.45,1.56,1.12,1.95v1.98c0,.85.69,1.55,1.55,1.55h2.48c.85,0,1.55-.69,1.55-1.55v-1.66h14.82v1.66c0,.85.69,1.55,1.55,1.55h2.48c.85,0,1.55-.69,1.55-1.55v-2.05c.61-.41,1.01-1.1,1.01-1.89v-4.66c0-1.1-.48-2.14-1.32-2.84l-1.22-1.03.94-.82h2.55ZM7.14,6.92c.33-.85.94-1.24,1.91-1.24h11.88c.97,0,1.58.39,1.92,1.26l1.95,4.44-1.41,1.25H6.59l-1.41-1.25,1.96-4.47Zm-.73,17.09c0,.18-.14.32-.32.32h-2.48c-.18,0-.32-.14-.32-.32v-1.66h3.12v1.66Zm20.39,0c0,.18-.14.32-.32.32h-2.48c-.18,0-.32-.14-.32-.32v-1.66h3.09s.02,0,.03,0v1.67Zm.13-10.5c.56.47.89,1.17.89,1.91v4.66c0,.58-.47,1.04-1.04,1.04H3.22c-.58,0-1.04-.47-1.04-1.04v-4.66c0-.74.32-1.43.89-1.91l1.36-1.15.36.31,1.34,1.18h17.76l1.33-1.18.36-.31,1.36,1.15Z"/>
  <rect class="cls-1" x="9.79" y="18.84" width="10.41" height="1.23"/>
  <path class="cls-1" d="m10.62,17.51c.09-.23.03-.5-.15-.67l-1.86-1.76c-.25-.23-.63-.22-.87.02-.23.25-.22.63.02.87l.74.7h-2.7c-1.28,0-1.73-1.28-1.75-1.34-.11-.32-.45-.49-.77-.39-.32.1-.5.45-.39.77.03.09.73,2.18,2.91,2.18h4.24c.25,0,.48-.15.57-.39Z"/>
  <path class="cls-1" d="m24.19,16.66h-2.7l.74-.7c.25-.23.26-.62.02-.87-.23-.25-.62-.26-.87-.02l-1.86,1.76c-.18.17-.24.44-.15.67.09.23.32.39.57.39h4.24c2.18,0,2.88-2.1,2.91-2.18.1-.32-.07-.66-.39-.77-.32-.11-.67.07-.77.39-.02.05-.47,1.34-1.75,1.34Z"/>
</svg>