<svg xmlns="http://www.w3.org/2000/svg" xmlns:xlink="http://www.w3.org/1999/xlink" width="28" height="28" viewBox="0 0 28 28">
  <defs>
    <clipPath id="clip-path">
      <rect id="사각형_112" data-name="사각형 112" width="28" height="24.733" fill="none"/>
    </clipPath>
  </defs>
  <g id="그룹_82" data-name="그룹 82" transform="translate(-7439 -6655)">
    <rect id="사각형_113" data-name="사각형 113" width="28" height="28" transform="translate(7439 6655)" fill="#fff" opacity="0"/>
    <g id="그룹_80" data-name="그룹 80" transform="translate(7439 6656.634)">
      <g id="그룹_79" data-name="그룹 79" clip-path="url(#clip-path)">
        <path id="패스_459" data-name="패스 459" d="M25.9,8.872,23.95,2.494A3.481,3.481,0,0,0,20.7,0H7.345A3.481,3.481,0,0,0,4.09,2.494L2.151,8.843A4.372,4.372,0,0,0,0,12.61v6.834a1.724,1.724,0,0,0,1.724,1.724h.049V23.1A1.627,1.627,0,0,0,3.4,24.732h2A1.627,1.627,0,0,0,7.032,23.1V21.169H21.013V23.1a1.627,1.627,0,0,0,1.627,1.627h2A1.627,1.627,0,0,0,26.272,23.1V21.169h0A1.724,1.724,0,0,0,28,19.445V12.61a4.373,4.373,0,0,0-2.1-3.739M7.389,3.456h13.12l1.672,5.336H5.819ZM7.01,16.725a1.767,1.767,0,1,1,1.767-1.767A1.767,1.767,0,0,1,7.01,16.725m13.981,0a1.767,1.767,0,1,1,1.767-1.767,1.767,1.767,0,0,1-1.767,1.767" transform="translate(0 0.001)" fill="#132f93"/>
      </g>
    </g>
  </g>
</svg>
