<?xml version="1.0" encoding="UTF-8"?>
<svg id="_레이어_1" data-name="레이어 1" xmlns="http://www.w3.org/2000/svg" viewBox="0 0 30 30">
  <defs>
    <style>
      .cls-1 {
        fill: #4f4f4f;
        stroke-width: 0px;
      }
    </style>
  </defs>
  <path class="cls-1" d="m15,1.64c-7.02,0-10.44,1.41-10.44,4.3v13.73c0,2.19,1.78,3.96,3.96,3.96h2.02l-2.95,3.73c-.21.27-.17.66.1.87.11.09.25.13.39.13.18,0,.36-.08.49-.24l1.23-1.55c.05.01.1.02.16.02h10.1s.09,0,.14-.02l1.23,1.55c.12.15.3.24.49.24.13,0,.27-.04.39-.13.27-.21.31-.6.1-.87l-2.95-3.73h2.02c2.19,0,3.96-1.78,3.96-3.96V5.93c0-2.89-3.41-4.3-10.44-4.3Zm0,1.24c4.19,0,9.18.53,9.2,3.05H5.8c.02-2.52,5.01-3.05,9.2-3.05ZM5.8,7.17h8.58v7.12H5.8v-7.12Zm4.97,18.19l1.36-1.72h5.73l1.36,1.72h-8.46Zm13.43-5.69c0,1.5-1.22,2.72-2.72,2.72h-12.95c-1.5,0-2.72-1.22-2.72-2.72v-4.14h18.39v4.14Zm0-5.38h-8.58v-7.12h8.58v7.12Z"/>
  <path class="cls-1" d="m9.29,20.92c1.2,0,2.17-.98,2.17-2.17s-.98-2.17-2.17-2.17-2.17.98-2.17,2.17.98,2.17,2.17,2.17Zm0-3.11c.51,0,.93.42.93.93s-.42.93-.93.93-.93-.42-.93-.93.42-.93.93-.93Z"/>
  <path class="cls-1" d="m20.71,20.92c1.2,0,2.17-.98,2.17-2.17s-.98-2.17-2.17-2.17-2.17.98-2.17,2.17.98,2.17,2.17,2.17Zm0-3.11c.51,0,.93.42.93.93s-.42.93-.93.93-.93-.42-.93-.93.42-.93.93-.93Z"/>
</svg>